<svg width="40" height="37" viewBox="0 0 40 37" fill="none" xmlns="http://www.w3.org/2000/svg">
<circle opacity="0.2" cx="18.5" cy="18.5" r="18.5" fill="#C4C4C4"/>
<path opacity="0.3" d="M11.9993 23V15.3636H13.4858V23H11.9993ZM12.75 14.1854C12.4915 14.1854 12.2694 14.0992 12.0838 13.9268C11.9015 13.7512 11.8104 13.5424 11.8104 13.3004C11.8104 13.0552 11.9015 12.8464 12.0838 12.674C12.2694 12.4983 12.4915 12.4105 12.75 12.4105C13.0085 12.4105 13.2289 12.4983 13.4112 12.674C13.5968 12.8464 13.6896 13.0552 13.6896 13.3004C13.6896 13.5424 13.5968 13.7512 13.4112 13.9268C13.2289 14.0992 13.0085 14.1854 12.75 14.1854ZM18.7022 23.1541C17.9631 23.1541 17.3268 22.9867 16.7931 22.652C16.2628 22.3139 15.8552 21.8482 15.5701 21.255C15.2851 20.6617 15.1426 19.9822 15.1426 19.2166C15.1426 18.4411 15.2884 17.7566 15.5801 17.1634C15.8717 16.5668 16.2827 16.1011 16.813 15.7663C17.3433 15.4316 17.9681 15.2642 18.6873 15.2642C19.2673 15.2642 19.7844 15.3719 20.2385 15.5874C20.6925 15.7995 21.0588 16.0978 21.3372 16.4822C21.6189 16.8667 21.7863 17.3158 21.8393 17.8295H20.3926C20.313 17.4716 20.1307 17.1634 19.8457 16.9048C19.564 16.6463 19.1861 16.517 18.7122 16.517C18.2979 16.517 17.935 16.6264 17.6234 16.8452C17.3152 17.0606 17.0749 17.3688 16.9025 17.7699C16.7302 18.1676 16.644 18.6383 16.644 19.1818C16.644 19.7386 16.7285 20.2192 16.8975 20.6236C17.0666 21.0279 17.3052 21.3411 17.6135 21.5632C17.925 21.7853 18.2913 21.8963 18.7122 21.8963C18.9939 21.8963 19.2491 21.8449 19.4778 21.7422C19.7098 21.6361 19.9037 21.4853 20.0595 21.2898C20.2186 21.0942 20.3296 20.8589 20.3926 20.5838H21.8393C21.7863 21.0777 21.6255 21.5185 21.3571 21.9062C21.0886 22.294 20.729 22.599 20.2782 22.821C19.8308 23.0431 19.3055 23.1541 18.7022 23.1541ZM26.6456 23.1541C25.9297 23.1541 25.3049 22.9901 24.7713 22.6619C24.2377 22.3338 23.8234 21.8748 23.5284 21.2848C23.2334 20.6948 23.0859 20.0054 23.0859 19.2166C23.0859 18.4245 23.2334 17.7318 23.5284 17.1385C23.8234 16.5452 24.2377 16.0845 24.7713 15.7564C25.3049 15.4283 25.9297 15.2642 26.6456 15.2642C27.3615 15.2642 27.9863 15.4283 28.5199 15.7564C29.0535 16.0845 29.4678 16.5452 29.7628 17.1385C30.0578 17.7318 30.2053 18.4245 30.2053 19.2166C30.2053 20.0054 30.0578 20.6948 29.7628 21.2848C29.4678 21.8748 29.0535 22.3338 28.5199 22.6619C27.9863 22.9901 27.3615 23.1541 26.6456 23.1541ZM26.6506 21.9062C27.1146 21.9062 27.4991 21.7836 27.804 21.5384C28.1089 21.2931 28.3343 20.9666 28.4801 20.5589C28.6293 20.1513 28.7038 19.7022 28.7038 19.2116C28.7038 18.7244 28.6293 18.277 28.4801 17.8693C28.3343 17.4583 28.1089 17.1286 27.804 16.88C27.4991 16.6314 27.1146 16.5071 26.6506 16.5071C26.1832 16.5071 25.7955 16.6314 25.4872 16.88C25.1823 17.1286 24.9553 17.4583 24.8061 17.8693C24.6603 18.277 24.5874 18.7244 24.5874 19.2116C24.5874 19.7022 24.6603 20.1513 24.8061 20.5589C24.9553 20.9666 25.1823 21.2931 25.4872 21.5384C25.7955 21.7836 26.1832 21.9062 26.6506 21.9062ZM33.351 18.4659V23H31.8645V15.3636H33.2914V16.6065H33.3858C33.5615 16.2022 33.8366 15.8774 34.2111 15.6321C34.589 15.3868 35.0646 15.2642 35.638 15.2642C36.1583 15.2642 36.6141 15.3736 37.0051 15.5923C37.3962 15.8078 37.6995 16.1293 37.915 16.5568C38.1304 16.9844 38.2381 17.513 38.2381 18.1428V23H36.7516V18.3217C36.7516 17.7682 36.6074 17.3357 36.3191 17.0241C36.0307 16.7093 35.6346 16.5518 35.1309 16.5518C34.7862 16.5518 34.4796 16.6264 34.2111 16.7756C33.946 16.9247 33.7355 17.1435 33.5797 17.4318C33.4273 17.7169 33.351 18.0616 33.351 18.4659Z" fill="black"/>
</svg>
